<svg xmlns="http://www.w3.org/2000/svg" viewBox="0 0 64 64" shape-rendering="crispEdges">
  <rect width="64" height="64" rx="10" fill="#0b1030"/>
  <rect x="3" y="3" width="58" height="58" rx="8" fill="none" stroke="#f8f8f8" stroke-width="3"/>
  <rect x="7" y="7" width="50" height="50" rx="5" fill="none" stroke="#0a1445" stroke-width="2"/>
  <!-- gold save crystal, 5x6 pixel grid -->
  <rect x="28" y="11" width="7" height="7" fill="#ffd54a"/>
  <rect x="21" y="18" width="7" height="7" fill="#ffd54a"/>
  <rect x="28" y="18" width="7" height="7" fill="#fff3c4"/>
  <rect x="35" y="18" width="7" height="7" fill="#ffd54a"/>
  <rect x="14" y="25" width="7" height="7" fill="#ffd54a"/>
  <rect x="21" y="25" width="7" height="7" fill="#fff3c4"/>
  <rect x="28" y="25" width="7" height="7" fill="#fff3c4"/>
  <rect x="35" y="25" width="7" height="7" fill="#fff3c4"/>
  <rect x="42" y="25" width="7" height="7" fill="#ffd54a"/>
  <rect x="14" y="32" width="7" height="7" fill="#ffd54a"/>
  <rect x="21" y="32" width="7" height="7" fill="#fff3c4"/>
  <rect x="28" y="32" width="7" height="7" fill="#fff3c4"/>
  <rect x="35" y="32" width="7" height="7" fill="#fff3c4"/>
  <rect x="42" y="32" width="7" height="7" fill="#ffd54a"/>
  <rect x="21" y="39" width="7" height="7" fill="#ffd54a"/>
  <rect x="28" y="39" width="7" height="7" fill="#fff3c4"/>
  <rect x="35" y="39" width="7" height="7" fill="#ffd54a"/>
  <rect x="28" y="46" width="7" height="7" fill="#ffd54a"/>
</svg>
